<svg width="111" height="32" viewBox="0 0 111 32" fill="none" xmlns="http://www.w3.org/2000/svg">
<path d="M8.86878 12.5795C8.30826 12.5795 7.85784 13.0395 7.85784 13.5995C7.85784 14.1595 8.31827 14.6195 8.86878 14.6195C9.4193 14.6195 9.88974 14.1595 9.88974 13.5995C9.87973 13.0395 9.43932 12.5795 8.86878 12.5795Z" fill="white"/>
<path d="M20.7504 3.48919C16.8667 -0.380815 9.89024 -1.14081 5.22589 1.75919C1.76266 3.90918 0.411397 7.24918 0.0210332 11.2392C-0.359322 18.7392 4.46518 26.3692 10.741 30.7192C13.0432 32.3192 13.2534 30.6892 12.7429 30.1592C11.6619 29.0492 9.21961 26.0492 8.8793 24.9792C8.17864 22.6792 9.05947 21.1992 11.4517 21.2392C12.873 21.2692 14.3244 21.1892 15.7157 20.9192C19.5192 20.1792 22.3619 18.1592 23.5129 14.3192C24.7341 10.1992 23.8032 6.52918 20.7504 3.48919ZM11.5818 14.0992C11.4817 14.6592 11.2315 15.1392 10.8311 15.5492C10.5509 15.8392 9.03945 17.3392 8.86929 17.5092C8.85928 17.5192 8.84927 17.5292 8.83926 17.5392C8.82925 17.5292 8.81924 17.5192 8.80923 17.5092C8.16863 16.8692 7.51803 16.2192 6.86742 15.5692C6.80737 15.5092 6.74731 15.4492 6.69726 15.3892C6.33693 14.9492 6.12673 14.4592 6.06667 13.8892C6.03665 13.6192 6.04665 13.3492 6.0967 13.0892C6.22682 12.4492 6.53711 11.9092 7.02757 11.4892C7.47799 11.1092 7.99848 10.8992 8.58903 10.8392C8.84927 10.8192 9.11952 10.8292 9.36976 10.8792C10.0304 11.0192 10.5909 11.3392 11.0113 11.8592C11.5318 12.5292 11.7119 13.2792 11.5818 14.0992ZM13.4436 13.9292C13.3735 11.3892 11.4217 9.42918 8.86929 9.35919C7.66817 9.32919 7.66817 7.46918 8.86929 7.50918C12.4326 7.60918 15.2052 10.3592 15.2953 13.9292C15.3353 15.1192 13.4736 15.1192 13.4436 13.9292ZM16.8968 13.4892C16.7867 9.40918 13.6337 6.25918 9.54992 6.14918C8.3488 6.11918 8.3488 4.25918 9.54992 4.29918C14.6547 4.42918 18.6184 8.39918 18.7485 13.4892C18.7785 14.6792 16.9268 14.6792 16.8968 13.4892Z" fill="white"/>
<path d="M31.5306 7.5189V14.5189L34.8037 11.1189H37.8866L34.3233 14.5989L38.297 20.5789H35.154L32.5516 16.3489L31.5507 17.3089V20.5589H28.9482V7.5189H31.5306Z" fill="white"/>
<path d="M41.3202 7.51891V20.5689H38.7278V7.51891H41.3202Z" fill="white"/>
<path d="M42.8819 13.7996C43.1121 13.1896 43.4424 12.6596 43.8628 12.2296C44.2932 11.7996 44.7937 11.4596 45.4043 11.2296C45.9948 10.9996 46.6755 10.8696 47.4161 10.8696C48.1568 10.8696 48.8275 10.9896 49.438 11.2296C50.0386 11.4596 50.5591 11.7996 50.9895 12.2296C51.4199 12.6596 51.7502 13.1796 51.9704 13.7996C52.2006 14.4096 52.3207 15.0996 52.3207 15.8496C52.3207 16.6096 52.2006 17.2896 51.9704 17.8896C51.7402 18.4996 51.4099 19.0196 50.9895 19.4596C50.5591 19.8896 50.0486 20.2296 49.438 20.4496C48.8375 20.6796 48.1568 20.7996 47.4161 20.7996C46.6755 20.7996 46.0048 20.6796 45.4043 20.4496C44.8137 20.2196 44.2932 19.8896 43.8628 19.4596C43.4324 19.0196 43.1021 18.5096 42.8819 17.8896C42.6517 17.2796 42.5316 16.5996 42.5316 15.8496C42.5316 15.0996 42.6417 14.4096 42.8819 13.7996ZM45.2341 16.9596C45.3042 17.3196 45.4243 17.6396 45.6044 17.9296C45.7846 18.2096 46.0148 18.4496 46.3051 18.6096C46.5954 18.7796 46.9657 18.8596 47.4061 18.8596C47.8465 18.8596 48.2169 18.7696 48.5172 18.6096C48.8175 18.4296 49.0577 18.2096 49.2278 17.9296C49.398 17.6496 49.5281 17.3196 49.5982 16.9596C49.6783 16.5996 49.7083 16.2296 49.7083 15.8496C49.7083 15.4696 49.6682 15.0996 49.5982 14.7396C49.5181 14.3696 49.408 14.0496 49.2278 13.7696C49.0477 13.4896 48.8074 13.2596 48.5172 13.0896C48.2269 12.9096 47.8565 12.8296 47.4061 12.8296C46.9657 12.8296 46.5954 12.9196 46.3051 13.0896C46.0148 13.2696 45.7746 13.4996 45.6044 13.7696C45.4243 14.0496 45.3042 14.3696 45.2341 14.7396C45.154 15.0996 45.124 15.4796 45.124 15.8496C45.134 16.2196 45.154 16.5996 45.2341 16.9596Z" fill="white"/>
<path d="M59.8575 20.5692V19.2592H59.7975C59.4672 19.8092 59.0367 20.1992 58.5163 20.4492C57.9858 20.6892 57.4553 20.8192 56.9048 20.8192C56.2141 20.8192 55.6336 20.7292 55.1932 20.5492C54.7427 20.3692 54.3924 20.1092 54.1422 19.7692C53.892 19.4392 53.7018 19.0292 53.6017 18.5392C53.4916 18.0592 53.4415 17.5292 53.4415 16.9392V11.1292H56.044V16.4592C56.044 17.2392 56.1641 17.8192 56.4143 18.1992C56.6545 18.5792 57.0849 18.7692 57.7055 18.7692C58.4162 18.7692 58.9266 18.5592 59.2469 18.1392C59.5672 17.7192 59.7274 17.0292 59.7274 16.0692V11.1092H62.3298V20.5592L59.8575 20.5692Z" fill="white"/>
<path d="M70.4668 19.3689C70.1665 19.8889 69.7662 20.2489 69.2657 20.4789C68.7652 20.6989 68.2147 20.8189 67.5941 20.8189C66.8835 20.8189 66.2729 20.6789 65.7324 20.4089C65.1919 20.1389 64.7615 19.7689 64.4112 19.2889C64.0608 18.8189 63.8106 18.2889 63.6204 17.6689C63.4403 17.0589 63.3602 16.4189 63.3602 15.7689C63.3602 15.1389 63.4503 14.5189 63.6204 13.9289C63.8006 13.3389 64.0608 12.8189 64.4112 12.3589C64.7615 11.9089 65.2019 11.5389 65.7124 11.2689C66.2429 10.9989 66.8434 10.8589 67.5441 10.8589C68.1046 10.8589 68.6351 10.9789 69.1456 11.2189C69.6561 11.4489 70.0564 11.7989 70.3467 12.2689H70.3868V7.51891H72.9892V20.5689H70.5169V19.3589L70.4668 19.3689ZM70.3567 14.6889C70.2867 14.3289 70.1665 14.0189 69.9764 13.7389C69.7962 13.4689 69.576 13.2389 69.2957 13.0689C69.0155 12.8989 68.6651 12.8189 68.2347 12.8189C67.8043 12.8189 67.444 12.9089 67.1537 13.0689C66.8635 13.2489 66.6232 13.4689 66.4531 13.7489C66.2729 14.0289 66.1528 14.3489 66.0727 14.7089C65.9926 15.0689 65.9526 15.4389 65.9526 15.8289C65.9526 16.1989 65.9927 16.5589 66.0827 16.9289C66.1728 17.2989 66.3029 17.6189 66.4931 17.9089C66.6733 18.1889 66.9235 18.4289 67.2038 18.5989C67.484 18.7789 67.8344 18.8589 68.2347 18.8589C68.6651 18.8589 69.0155 18.7689 69.3057 18.6089C69.586 18.4289 69.8262 18.2089 69.9864 17.9289C70.1565 17.6489 70.2766 17.3189 70.3567 16.9589C70.4368 16.5889 70.4668 16.2189 70.4668 15.8289C70.4668 15.4189 70.4268 15.0489 70.3567 14.6889Z" fill="white"/>
<path d="M76.5626 18.218C76.6827 18.418 76.8228 18.588 77.013 18.718C77.1932 18.848 77.4034 18.938 77.6436 18.998C77.8738 19.058 78.1341 19.088 78.3843 19.088C78.5645 19.088 78.7646 19.068 78.9548 19.018C79.155 18.978 79.3452 18.908 79.5053 18.818C79.6755 18.728 79.8056 18.608 79.9157 18.448C80.0258 18.288 80.0859 18.108 80.0859 17.878C80.0859 17.488 79.8256 17.198 79.3052 16.998C78.7847 16.798 78.054 16.608 77.1331 16.418C76.7528 16.328 76.3824 16.238 76.0221 16.118C75.6618 15.998 75.3415 15.858 75.0612 15.658C74.7809 15.478 74.5507 15.228 74.3806 14.948C74.2104 14.668 74.1303 14.318 74.1303 13.898C74.1303 13.288 74.2504 12.788 74.4907 12.398C74.7309 12.008 75.0412 11.698 75.4315 11.478C75.8219 11.258 76.2623 11.098 76.7428 10.998C77.2332 10.908 77.7237 10.858 78.2442 10.858C78.7647 10.858 79.2551 10.908 79.7356 11.008C80.216 11.108 80.6564 11.268 81.0268 11.508C81.4071 11.738 81.7174 12.048 81.9676 12.428C82.2179 12.808 82.368 13.298 82.4181 13.878H79.9558C79.9157 13.378 79.7356 13.038 79.3952 12.868C79.0549 12.688 78.6545 12.608 78.1841 12.608C78.034 12.608 77.8838 12.618 77.7037 12.638C77.5235 12.658 77.3834 12.698 77.2332 12.758C77.0931 12.818 76.973 12.908 76.8729 13.018C76.7728 13.128 76.7227 13.288 76.7227 13.488C76.7227 13.718 76.8128 13.908 76.973 14.048C77.1531 14.198 77.3633 14.308 77.6436 14.408C77.9139 14.498 78.2241 14.588 78.5845 14.648C78.9348 14.718 79.2951 14.808 79.6655 14.888C80.0458 14.978 80.4062 15.068 80.7765 15.198C81.1369 15.318 81.4572 15.478 81.7274 15.688C82.0077 15.888 82.2379 16.138 82.398 16.438C82.5682 16.738 82.6483 17.108 82.6483 17.548C82.6483 18.168 82.5182 18.688 82.2779 19.118C82.0277 19.538 81.7074 19.878 81.307 20.128C80.9066 20.378 80.4362 20.568 79.9257 20.668C79.4052 20.778 78.8848 20.828 78.3443 20.828C77.7937 20.828 77.2532 20.768 76.7328 20.658C76.2023 20.548 75.7418 20.368 75.3314 20.108C74.9211 19.858 74.5908 19.518 74.3305 19.098C74.0703 18.678 73.9201 18.158 73.9001 17.518H76.3624C76.3924 17.778 76.4425 18.018 76.5626 18.218Z" fill="white"/>
<path d="M86.1201 11.118V12.328H86.1601C86.4804 11.808 86.8808 11.438 87.3712 11.208C87.8617 10.978 88.3922 10.858 88.9827 10.858C89.7234 10.858 90.364 10.998 90.9045 11.278C91.445 11.558 91.8854 11.928 92.2358 12.398C92.5861 12.868 92.8463 13.398 93.0265 14.018C93.1967 14.628 93.2767 15.278 93.2767 15.948C93.2767 16.578 93.1867 17.198 93.0265 17.778C92.8463 18.358 92.5961 18.878 92.2458 19.338C91.8954 19.788 91.465 20.148 90.9546 20.418C90.4341 20.678 89.8335 20.818 89.1329 20.818C88.5523 20.818 88.0118 20.698 87.5114 20.458C87.0109 20.228 86.6105 19.878 86.2902 19.408H86.2502V23.888H83.6478V11.118H86.1201ZM89.4932 18.618C89.7835 18.438 90.0137 18.228 90.1838 17.948C90.364 17.678 90.4841 17.358 90.5542 16.988C90.6343 16.618 90.6643 16.248 90.6643 15.878C90.6643 15.498 90.6243 15.128 90.5442 14.758C90.4641 14.388 90.334 14.068 90.1538 13.788C89.9737 13.508 89.7334 13.268 89.4532 13.098C89.1729 12.918 88.8226 12.838 88.4022 12.838C87.9718 12.838 87.6114 12.928 87.3312 13.098C87.0509 13.278 86.8107 13.508 86.6405 13.778C86.4604 14.058 86.3403 14.378 86.2602 14.748C86.1901 15.108 86.1501 15.488 86.1501 15.878C86.1501 16.258 86.1901 16.628 86.2702 16.988C86.3503 17.358 86.4704 17.668 86.6606 17.948C86.8407 18.218 87.0709 18.448 87.3612 18.618C87.6515 18.788 88.0018 18.868 88.4222 18.868C88.8526 18.868 89.2129 18.778 89.4932 18.618Z" fill="white"/>
<path d="M94.338 13.7996C94.5682 13.1896 94.8985 12.6596 95.3189 12.2296C95.7493 11.7996 96.2498 11.4596 96.8603 11.2296C97.4509 10.9996 98.1315 10.8696 98.8822 10.8696C99.6229 10.8696 100.304 10.9896 100.904 11.2296C101.505 11.4596 102.025 11.7996 102.456 12.2296C102.886 12.6596 103.216 13.1796 103.436 13.7996C103.667 14.4096 103.787 15.0996 103.787 15.8496C103.787 16.6096 103.667 17.2896 103.436 17.8896C103.206 18.4996 102.876 19.0196 102.456 19.4596C102.025 19.8896 101.515 20.2296 100.904 20.4496C100.304 20.6796 99.6229 20.7996 98.8822 20.7996C98.1415 20.7996 97.4709 20.6796 96.8603 20.4496C96.2698 20.2196 95.7493 19.8896 95.3189 19.4596C94.8885 19.0196 94.5582 18.5096 94.338 17.8896C94.1078 17.2796 93.9876 16.5996 93.9876 15.8496C93.9876 15.0996 94.0978 14.4096 94.338 13.7996ZM96.6902 16.9596C96.7602 17.3196 96.8803 17.6396 97.0605 17.9296C97.2407 18.2096 97.4709 18.4496 97.7612 18.6096C98.0514 18.7796 98.4218 18.8596 98.8622 18.8596C99.3026 18.8596 99.673 18.7696 99.9732 18.6096C100.274 18.4296 100.514 18.2096 100.684 17.9296C100.864 17.6496 100.984 17.3196 101.054 16.9596C101.134 16.5996 101.164 16.2296 101.164 15.8496C101.164 15.4696 101.124 15.0996 101.054 14.7396C100.974 14.3696 100.864 14.0496 100.684 13.7696C100.504 13.4896 100.274 13.2596 99.9732 13.0896C99.673 12.9096 99.3026 12.8296 98.8622 12.8296C98.4218 12.8296 98.0514 12.9196 97.7612 13.0896C97.4709 13.2696 97.2307 13.4996 97.0605 13.7696C96.8803 14.0496 96.7602 14.3696 96.6902 14.7396C96.6101 15.0996 96.5801 15.4796 96.5801 15.8496C96.5901 16.2196 96.6301 16.5996 96.6902 16.9596Z" fill="white"/>
<path d="M110.104 11.118V12.848H108.202V17.518C108.202 17.958 108.272 18.248 108.412 18.398C108.563 18.548 108.853 18.618 109.293 18.618C109.443 18.618 109.574 18.608 109.714 18.598C109.854 18.588 109.974 18.568 110.094 18.538V20.558C109.874 20.598 109.624 20.618 109.363 20.628C109.093 20.638 108.833 20.648 108.573 20.648C108.172 20.648 107.792 20.618 107.432 20.568C107.071 20.508 106.761 20.398 106.481 20.248C106.21 20.088 105.99 19.868 105.83 19.568C105.67 19.278 105.6 18.898 105.6 18.418V12.838H104.018V11.108H105.6V8.28797H108.202V11.118H110.104Z" fill="white"/>
</svg>
