<svg width="127" height="40" viewBox="0 0 127 40" fill="none" xmlns="http://www.w3.org/2000/svg">
<path d="M16.8765 16.8804C16.3159 16.8804 15.8655 17.3404 15.8655 17.9004C15.8655 18.4604 16.326 18.9204 16.8765 18.9204C17.427 18.9204 17.8974 18.4604 17.8974 17.9004C17.8874 17.3404 17.447 16.8804 16.8765 16.8804Z" fill="white"/>
<path d="M28.7581 7.79006C24.8744 3.92006 17.8979 3.16006 13.2336 6.06006C9.77034 8.21006 8.41908 11.5501 8.02871 15.5401C7.64836 23.0401 12.4729 30.6701 18.7487 35.0201C21.0509 36.6201 21.2611 34.9901 20.7506 34.4601C19.6696 33.3501 17.2273 30.3501 16.887 29.2801C16.1863 26.9801 17.0671 25.5001 19.4594 25.5401C20.8807 25.5701 22.3321 25.4901 23.7234 25.2201C27.5269 24.4801 30.3696 22.4601 31.5206 18.6201C32.7418 14.5001 31.8109 10.8301 28.7581 7.79006ZM19.5895 18.4001C19.4894 18.9601 19.2392 19.4401 18.8388 19.8501C18.5585 20.1401 17.0471 21.6401 16.877 21.8101C16.867 21.8201 16.857 21.8301 16.8469 21.8401C16.8369 21.8301 16.8269 21.8201 16.8169 21.8101C16.1763 21.1701 15.5257 20.5201 14.8751 19.8701C14.815 19.8101 14.755 19.7501 14.7049 19.6901C14.3446 19.2501 14.1344 18.7601 14.0744 18.1901C14.0443 17.9201 14.0543 17.6501 14.1044 17.3901C14.2345 16.7501 14.5448 16.2101 15.0353 15.7901C15.4857 15.4101 16.0062 15.2001 16.5967 15.1401C16.857 15.1201 17.1272 15.1301 17.3774 15.1801C18.0381 15.3201 18.5986 15.6401 19.019 16.1601C19.5395 16.8301 19.7196 17.5801 19.5895 18.4001ZM21.4512 18.2301C21.3812 15.6901 19.4294 13.7301 16.877 13.6601C15.6758 13.6301 15.6758 11.7701 16.877 11.8101C20.4403 11.9101 23.2129 14.6601 23.303 18.2301C23.343 19.4201 21.4813 19.4201 21.4512 18.2301ZM24.9045 17.7901C24.7944 13.7101 21.6414 10.5601 17.5576 10.4501C16.3565 10.4201 16.3565 8.56006 17.5576 8.60006C22.6624 8.73006 26.6261 12.7001 26.7562 17.7901C26.7862 18.9801 24.9345 18.9801 24.9045 17.7901Z" fill="white"/>
<path d="M39.5383 11.8198V18.8198L42.8114 15.4198H45.8943L42.3309 18.8998L46.3046 24.8798H43.1617L40.5593 20.6498L39.5583 21.6098V24.8598H36.9559V11.8198H39.5383Z" fill="white"/>
<path d="M49.3279 11.8198V24.8698H46.7355V11.8198H49.3279Z" fill="white"/>
<path d="M50.8896 18.1004C51.1198 17.4904 51.4501 16.9604 51.8705 16.5304C52.3009 16.1004 52.8014 15.7604 53.4119 15.5304C54.0025 15.3004 54.6831 15.1704 55.4238 15.1704C56.1645 15.1704 56.8351 15.2904 57.4457 15.5304C58.0463 15.7604 58.5668 16.1004 58.9972 16.5304C59.4276 16.9604 59.7579 17.4804 59.9781 18.1004C60.2083 18.7104 60.3284 19.4004 60.3284 20.1504C60.3284 20.9104 60.2083 21.5904 59.9781 22.1904C59.7479 22.8004 59.4176 23.3204 58.9972 23.7604C58.5668 24.1904 58.0563 24.5304 57.4457 24.7504C56.8452 24.9804 56.1645 25.1004 55.4238 25.1004C54.6831 25.1004 54.0125 24.9804 53.4119 24.7504C52.8214 24.5204 52.3009 24.1904 51.8705 23.7604C51.4401 23.3204 51.1098 22.8104 50.8896 22.1904C50.6594 21.5804 50.5393 20.9004 50.5393 20.1504C50.5393 19.4004 50.6494 18.7104 50.8896 18.1004ZM53.2418 21.2604C53.3119 21.6204 53.432 21.9404 53.6121 22.2304C53.7923 22.5104 54.0225 22.7504 54.3128 22.9104C54.6031 23.0804 54.9734 23.1604 55.4138 23.1604C55.8542 23.1604 56.2246 23.0704 56.5249 22.9104C56.8251 22.7304 57.0654 22.5104 57.2355 22.2304C57.4057 21.9504 57.5358 21.6204 57.6059 21.2604C57.6859 20.9004 57.716 20.5304 57.716 20.1504C57.716 19.7704 57.6759 19.4004 57.6059 19.0404C57.5258 18.6704 57.4157 18.3504 57.2355 18.0704C57.0553 17.7904 56.8151 17.5604 56.5249 17.3904C56.2346 17.2104 55.8642 17.1304 55.4138 17.1304C54.9734 17.1304 54.6031 17.2204 54.3128 17.3904C54.0225 17.5704 53.7823 17.8004 53.6121 18.0704C53.432 18.3504 53.3119 18.6704 53.2418 19.0404C53.1617 19.4004 53.1317 19.7804 53.1317 20.1504C53.1417 20.5204 53.1617 20.9004 53.2418 21.2604Z" fill="white"/>
<path d="M67.8652 24.8701V23.5601H67.8051C67.4748 24.1101 67.0444 24.5001 66.5239 24.7501C65.9934 24.9901 65.463 25.1201 64.9124 25.1201C64.2218 25.1201 63.6413 25.0301 63.2008 24.8501C62.7504 24.6701 62.4001 24.4101 62.1499 24.0701C61.8996 23.7401 61.7095 23.3301 61.6094 22.8401C61.4993 22.3601 61.4492 21.8301 61.4492 21.2401V15.4301H64.0516V20.7601C64.0516 21.5401 64.1717 22.1201 64.422 22.5001C64.6622 22.8801 65.0926 23.0701 65.7132 23.0701C66.4239 23.0701 66.9343 22.8601 67.2546 22.4401C67.5749 22.0201 67.7351 21.3301 67.7351 20.3701V15.4101H70.3375V24.8601L67.8652 24.8701Z" fill="white"/>
<path d="M78.4745 23.6698C78.1742 24.1898 77.7739 24.5498 77.2734 24.7798C76.7729 24.9998 76.2224 25.1198 75.6018 25.1198C74.8912 25.1198 74.2806 24.9798 73.7401 24.7098C73.1996 24.4398 72.7692 24.0698 72.4189 23.5898C72.0685 23.1198 71.8183 22.5898 71.6281 21.9698C71.4479 21.3598 71.3679 20.7198 71.3679 20.0698C71.3679 19.4398 71.458 18.8198 71.6281 18.2298C71.8083 17.6398 72.0685 17.1198 72.4189 16.6598C72.7692 16.2098 73.2096 15.8398 73.7201 15.5698C74.2506 15.2998 74.8511 15.1598 75.5518 15.1598C76.1123 15.1598 76.6428 15.2798 77.1533 15.5198C77.6637 15.7498 78.0641 16.0998 78.3544 16.5698H78.3944V11.8198H80.9969V24.8698H78.5246V23.6598L78.4745 23.6698ZM78.3644 18.9898C78.2943 18.6298 78.1742 18.3198 77.984 18.0398C77.8039 17.7698 77.5837 17.5398 77.3034 17.3698C77.0231 17.1998 76.6728 17.1198 76.2424 17.1198C75.812 17.1198 75.4517 17.2098 75.1614 17.3698C74.8711 17.5498 74.6309 17.7698 74.4608 18.0498C74.2806 18.3298 74.1605 18.6498 74.0804 19.0098C74.0003 19.3698 73.9603 19.7398 73.9603 20.1298C73.9603 20.4998 74.0003 20.8598 74.0904 21.2298C74.1805 21.5998 74.3106 21.9198 74.5008 22.2098C74.681 22.4898 74.9312 22.7298 75.2115 22.8998C75.4917 23.0798 75.842 23.1598 76.2424 23.1598C76.6728 23.1598 77.0232 23.0698 77.3134 22.9098C77.5937 22.7298 77.8339 22.5098 77.9941 22.2298C78.1642 21.9498 78.2843 21.6198 78.3644 21.2598C78.4445 20.8898 78.4745 20.5198 78.4745 20.1298C78.4745 19.7198 78.4345 19.3498 78.3644 18.9898Z" fill="white"/>
<path d="M84.5703 22.5188C84.6904 22.7188 84.8305 22.8888 85.0207 23.0188C85.2009 23.1488 85.4111 23.2388 85.6513 23.2988C85.8815 23.3588 86.1417 23.3888 86.392 23.3888C86.5721 23.3888 86.7723 23.3688 86.9625 23.3188C87.1627 23.2788 87.3529 23.2088 87.513 23.1188C87.6832 23.0288 87.8133 22.9088 87.9234 22.7488C88.0335 22.5888 88.0936 22.4088 88.0936 22.1788C88.0936 21.7888 87.8333 21.4988 87.3128 21.2988C86.7923 21.0988 86.0617 20.9088 85.1408 20.7188C84.7605 20.6288 84.3901 20.5388 84.0298 20.4188C83.6694 20.2988 83.3491 20.1588 83.0689 19.9588C82.7886 19.7788 82.5584 19.5288 82.3882 19.2488C82.2181 18.9688 82.138 18.6188 82.138 18.1988C82.138 17.5888 82.2581 17.0888 82.4983 16.6988C82.7386 16.3088 83.0489 15.9988 83.4392 15.7788C83.8296 15.5588 84.27 15.3988 84.7504 15.2988C85.2409 15.2088 85.7314 15.1588 86.2518 15.1588C86.7723 15.1588 87.2628 15.2088 87.7432 15.3088C88.2237 15.4088 88.6641 15.5688 89.0344 15.8088C89.4148 16.0388 89.7251 16.3488 89.9753 16.7288C90.2256 17.1088 90.3757 17.5988 90.4257 18.1788H87.9634C87.9234 17.6788 87.7432 17.3388 87.4029 17.1688C87.0626 16.9888 86.6622 16.9088 86.1918 16.9088C86.0416 16.9088 85.8915 16.9188 85.7113 16.9388C85.5312 16.9588 85.391 16.9988 85.2409 17.0588C85.1008 17.1188 84.9807 17.2088 84.8806 17.3188C84.7805 17.4288 84.7304 17.5888 84.7304 17.7888C84.7304 18.0188 84.8205 18.2088 84.9807 18.3488C85.1608 18.4988 85.371 18.6088 85.6513 18.7088C85.9215 18.7988 86.2318 18.8888 86.5922 18.9488C86.9425 19.0188 87.3028 19.1088 87.6732 19.1888C88.0535 19.2788 88.4139 19.3688 88.7842 19.4988C89.1445 19.6188 89.4648 19.7788 89.7351 19.9888C90.0154 20.1888 90.2456 20.4388 90.4057 20.7388C90.5759 21.0388 90.656 21.4088 90.656 21.8488C90.656 22.4688 90.5258 22.9888 90.2856 23.4188C90.0354 23.8388 89.7151 24.1788 89.3147 24.4288C88.9143 24.6788 88.4439 24.8688 87.9334 24.9688C87.4129 25.0788 86.8924 25.1288 86.3519 25.1288C85.8014 25.1288 85.2609 25.0688 84.7404 24.9588C84.2099 24.8488 83.7495 24.6688 83.3391 24.4088C82.9287 24.1588 82.5984 23.8188 82.3382 23.3988C82.0779 22.9788 81.9278 22.4588 81.9078 21.8188H84.3701C84.4001 22.0788 84.4502 22.3188 84.5703 22.5188Z" fill="white"/>
<path d="M94.1277 15.4188V16.6288H94.1678C94.4881 16.1088 94.8885 15.7388 95.3789 15.5088C95.8694 15.2788 96.3999 15.1588 96.9904 15.1588C97.7311 15.1588 98.3717 15.2988 98.9122 15.5788C99.4527 15.8588 99.8931 16.2288 100.243 16.6988C100.594 17.1688 100.854 17.6988 101.034 18.3188C101.204 18.9288 101.284 19.5788 101.284 20.2488C101.284 20.8788 101.194 21.4988 101.034 22.0788C100.854 22.6588 100.604 23.1788 100.253 23.6388C99.9031 24.0888 99.4727 24.4488 98.9623 24.7188C98.4418 24.9788 97.8412 25.1188 97.1406 25.1188C96.56 25.1188 96.0195 24.9988 95.519 24.7588C95.0186 24.5288 94.6182 24.1788 94.2979 23.7088H94.2579V28.1888H91.6554V15.4188H94.1277ZM97.5009 22.9188C97.7912 22.7388 98.0214 22.5288 98.1915 22.2488C98.3717 21.9788 98.4918 21.6588 98.5619 21.2888C98.642 20.9188 98.672 20.5488 98.672 20.1788C98.672 19.7988 98.6319 19.4288 98.5519 19.0588C98.4718 18.6888 98.3417 18.3688 98.1615 18.0888C97.9813 17.8088 97.7411 17.5688 97.4609 17.3988C97.1806 17.2188 96.8303 17.1388 96.4099 17.1388C95.9795 17.1388 95.6191 17.2288 95.3389 17.3988C95.0586 17.5788 94.8184 17.8088 94.6482 18.0788C94.4681 18.3588 94.3479 18.6788 94.2679 19.0488C94.1978 19.4088 94.1578 19.7888 94.1578 20.1788C94.1578 20.5588 94.1978 20.9288 94.2779 21.2888C94.358 21.6588 94.4781 21.9688 94.6682 22.2488C94.8484 22.5188 95.0786 22.7488 95.3689 22.9188C95.6592 23.0888 96.0095 23.1688 96.4299 23.1688C96.8603 23.1688 97.2206 23.0788 97.5009 22.9188Z" fill="white"/>
<path d="M102.346 18.1004C102.576 17.4904 102.906 16.9604 103.327 16.5304C103.757 16.1004 104.257 15.7604 104.868 15.5304C105.459 15.3004 106.139 15.1704 106.89 15.1704C107.631 15.1704 108.311 15.2904 108.912 15.5304C109.512 15.7604 110.033 16.1004 110.463 16.5304C110.894 16.9604 111.224 17.4804 111.444 18.1004C111.674 18.7104 111.794 19.4004 111.794 20.1504C111.794 20.9104 111.674 21.5904 111.444 22.1904C111.214 22.8004 110.884 23.3204 110.463 23.7604C110.033 24.1904 109.522 24.5304 108.912 24.7504C108.311 24.9804 107.631 25.1004 106.89 25.1004C106.149 25.1004 105.479 24.9804 104.868 24.7504C104.277 24.5204 103.757 24.1904 103.327 23.7604C102.896 23.3204 102.566 22.8104 102.346 22.1904C102.115 21.5804 101.995 20.9004 101.995 20.1504C101.995 19.4004 102.105 18.7104 102.346 18.1004ZM104.698 21.2604C104.768 21.6204 104.888 21.9404 105.068 22.2304C105.248 22.5104 105.479 22.7504 105.769 22.9104C106.059 23.0804 106.429 23.1604 106.87 23.1604C107.31 23.1604 107.681 23.0704 107.981 22.9104C108.281 22.7304 108.521 22.5104 108.692 22.2304C108.872 21.9504 108.992 21.6204 109.062 21.2604C109.142 20.9004 109.172 20.5304 109.172 20.1504C109.172 19.7704 109.132 19.4004 109.062 19.0404C108.982 18.6704 108.872 18.3504 108.692 18.0704C108.511 17.7904 108.281 17.5604 107.981 17.3904C107.681 17.2104 107.31 17.1304 106.87 17.1304C106.429 17.1304 106.059 17.2204 105.769 17.3904C105.479 17.5704 105.238 17.8004 105.068 18.0704C104.888 18.3504 104.768 18.6704 104.698 19.0404C104.618 19.4004 104.588 19.7804 104.588 20.1504C104.598 20.5204 104.638 20.9004 104.698 21.2604Z" fill="white"/>
<path d="M118.112 15.4188V17.1488H116.21V21.8188C116.21 22.2588 116.28 22.5488 116.42 22.6988C116.57 22.8488 116.861 22.9188 117.301 22.9188C117.451 22.9188 117.581 22.9088 117.721 22.8988C117.862 22.8888 117.982 22.8688 118.102 22.8388V24.8588C117.882 24.8988 117.631 24.9188 117.371 24.9288C117.101 24.9388 116.841 24.9488 116.58 24.9488C116.18 24.9488 115.8 24.9188 115.439 24.8688C115.079 24.8088 114.769 24.6988 114.488 24.5488C114.218 24.3888 113.998 24.1688 113.838 23.8688C113.678 23.5788 113.608 23.1988 113.608 22.7188V17.1388H112.026V15.4088H113.608V12.5888H116.21V15.4188H118.112Z" fill="white"/>
</svg>
